#!OML:ASF G:\JayActor3\Patient Classification 1\Patient 1\Session 5\male.ASF
:FULLY-SPECIFIED
:DEGREES
836
root 39.8726 16.8106 -5.1407 463.599 100.357 462.593
lowerback 0.302973 0.444472 11.9305
upperback 1.40172 0.579718 1.0884
thorax 1.40824 0.448723 -5.54246
lowerneck -6.60236 0.00613821 0.868857
upperneck 9.02619 -0.256822 2.2179
head 4.14439 0.030689 0.574639
rclavicle 1.68967e-015 1.19271e-014
rhumerus -26.5533 -0.146 -90.8348
rradius 28.4333
rwrist 3.99208
rhand -17.365 -41.2928
rfingers 7.12502
rthumb 8.88312 288.914
lclavicle 1.68967e-015 1.19271e-014
lhumerus -30.3139 17.3923 78.5982
lradius 19.3114
lwrist 11.8629
lhand -17.9314 8.92979
lfingers 7.12502
lthumb 8.33651 38.7453
rfemur 20.5743 -6.64103 33.4198
rtibia 6.14704
rfoot -0.482239 -8.33693
rtoes -14.5394
lfemur -28.2101 10.9087 -13.967
ltibia 22.4577
lfoot 9.07432 1.43363
ltoes -24.1277
837
root 40.0365 16.7988 -5.15812 464.867 100.396 463.846
lowerback 0.160581 0.497523 11.9852
upperback 1.38328 0.629888 1.05676
thorax 1.47999 0.477339 -5.60428
lowerneck -6.57988 0.0194602 0.870694
upperneck 8.95332 -0.237555 2.21244
head 4.11356 0.0386746 0.572999
rclavicle -3.85145e-015 9.93923e-015
rhumerus -26.6505 -0.433076 -90.7642
rradius 28.0349
rwrist 4.3459
rhand -17.3657 -40.7317
rfingers 7.12502
rthumb 8.88244 289.475
lclavicle -3.85145e-015 9.93923e-015
lhumerus -30.5478 18.228 78.1011
lradius 18.7408
lwrist 11.2658
lhand -17.884 8.93208
lfingers 7.12502
lthumb 8.38232 38.7458
rfemur 21.5716 -6.41336 33.214
rtibia 5.24485
rfoot 0.309077 -8.54107
rtoes -14.5107
lfemur -28.0309 11.3548 -14.2617
ltibia 22.8445
lfoot 9.51553 1.17016
ltoes -24.5143
838
root 40.2044 16.7866 -5.17672 466.16 100.441 465.141
lowerback 0.00869187 0.551771 12.0443
upperback 1.36684 0.679991 1.02532
thorax 1.55946 0.506551 -5.66811
lowerneck -6.55896 0.0316468 0.869895
upperneck 8.89645 -0.219556 2.2053
head 4.08883 0.0461329 0.5713
rclavicle -9.46712e-015 -1.15295e-014
rhumerus -26.7736 -0.700618 -90.682
rradius 27.6376
rwrist 4.63654
rhand -17.388 -40.1742
rfingers 7.12502
rthumb 8.86098 290.032
lclavicle -9.46712e-015 -1.15295e-014
lhumerus -30.8207 19.0449 77.5974
lradius 18.1993
lwrist 10.6734
lhand -17.8104 8.95518
lfingers 7.12502
lthumb 8.45331 38.766
rfemur 22.4995 -6.17511 32.9956
rtibia 4.51397
rfoot 1.09513 -8.77933
rtoes -14.3782
lfemur -27.7576 11.7507 -14.5307
ltibia 23.2498
lfoot 9.84815 0.643244
ltoes -24.8171
839
root 40.3765 16.774 -5.1964 467.493 100.499 466.486
lowerback -0.153971 0.60967 12.116
upperback 1.34611 0.733481 0.996319
thorax 1.64149 0.53763 -5.73595
lowerneck -6.53795 0.042643 0.868372
upperneck 8.86106 -0.20298 2.19519
head 4.07178 0.053078 0.568801
rclavicle -3.35449e-015 -5.88403e-014
rhumerus -26.9325 -0.972769 -90.5822
rradius 27.2523
rwrist 4.89558
rhand -17.4235 -39.6179
rfingers 7.12502
rthumb 8.82666 290.587
lclavicle -3.35449e-015 -5.88403e-014
lhumerus -31.1387 19.8301 77.0901
lradius 17.6909
lwrist 10.0834
lhand -17.7152 9.00683
lfingers 7.12502
lthumb 8.54517 38.8139
rfemur 23.2979 -5.92112 32.7735
rtibia 4.05042
rfoot 1.84247 -9.04197
rtoes -14.1045
lfemur -27.389 12.0508 -14.7427
ltibia 23.6551
lfoot 9.90878 -0.0792066
ltoes -25.0636
840
root 40.5527 16.7619 -5.21688 468.904 100.567 467.918
lowerback -0.327461 0.671747 12.1855
upperback 1.31686 0.79133 0.968525
thorax 1.72163 0.57039 -5.80092
lowerneck -6.51387 0.0537443 0.871975
upperneck 8.85214 -0.186462 2.18024
head 4.06357 0.0603735 0.563935
rclavicle -9.44227e-016 -5.1684e-015
rhumerus -27.1305 -1.2286 -90.4697
rradius 26.8795
rwrist 5.11525
rhand -17.4719 -39.0657
rfingers 7.12502
rthumb 8.78001 291.137
lclavicle -9.44227e-016 -5.1684e-015
lhumerus -31.5075 20.5556 76.5884
lradius 17.2252
lwrist 9.51923
lhand -17.6233 9.05664
lfingers 7.12502
lthumb 8.63384 38.8601
rfemur 23.9166 -5.64652 32.5386
rtibia 3.93624
rfoot 2.53307 -9.31645
rtoes -13.7617
lfemur -26.9125 12.1976 -14.8777
ltibia 24.0495
lfoot 9.56175 -0.732387
ltoes -24.9818
841
root 40.7324 16.7498 -5.23773 470.39 100.653 469.426
lowerback -0.511198 0.738548 12.2567
upperback 1.27496 0.854653 0.945433
thorax 1.79541 0.604997 -5.8615
lowerneck -6.47876 0.0650022 0.877732
upperneck 8.867 -0.169543 2.16207
head 4.06162 0.068154 0.557756
rclavicle -4.84538e-015 2.98177e-014
rhumerus -27.3663 -1.46773 -90.3439
rradius 26.5215
rwrist 5.31674
rhand -17.5222 -38.5165
rfingers 7.12502
rthumb 8.73148 291.684
lclavicle -4.84538e-015 2.98177e-014
lhumerus -31.9291 21.2146 76.0949
lradius 16.8104
lwrist 8.98489
lhand -17.5362 9.11782
lfingers 7.12502
lthumb 8.71796 38.9178
rfemur 24.3201 -5.34996 32.3033
rtibia 4.21349
rfoot 3.15918 -9.59574
rtoes -13.3046
lfemur -26.3585 12.2253 -14.9438
ltibia 24.427
lfoot 8.80902 -1.24417
ltoes -24.9206
842
root 40.9157 16.7389 -5.25857 472.001 100.753 471.06
lowerback -0.702008 0.81318 12.3174
upperback 1.21973 0.928191 0.924608
thorax 1.861 0.643466 -5.91324
lowerneck -6.44007 0.0774953 0.883771
upperneck 8.91128 -0.151145 2.14453
head 4.06948 0.0771897 0.552005
rclavicle 3.72721e-015 3.65764e-014
rhumerus -27.6364 -1.70648 -90.2019
rradius 26.1772
rwrist 5.51399
rhand -17.5742 -37.9685
rfingers 7.12502
rthumb 8.68128 292.23
lclavicle 3.72721e-015 3.65764e-014
lhumerus -32.3995 21.8104 75.6091
lradius 16.4442
lwrist 8.47473
lhand -17.4616 9.14797
lfingers 7.12502
lthumb 8.78995 38.9449
rfemur 24.5074 -5.02546 32.0609
rtibia 4.87063
rfoot 3.73239 -9.88458
rtoes -12.7238
lfemur -25.7261 12.1347 -14.9423
ltibia 24.7834
lfoot 7.69472 -1.43548
ltoes -24.6093
843
root 41.1016 16.7293 -5.27875 473.715 100.866 472.796
lowerback -0.895803 0.891074 12.3573
upperback 1.14935 1.00683 0.90599
thorax 1.91291 0.68268 -5.9506
lowerneck -6.39361 0.0929373 0.891227
upperneck 8.98283 -0.129474 2.13367
head 4.08555 0.0886722 0.548579
rclavicle -1.71949e-014 -1.27222e-014
rhumerus -27.9355 -1.94528 -90.0487
rradius 25.839
rwrist 5.71946
rhand -17.6335 -37.4177
rfingers 7.12502
rthumb 8.624 292.778
lclavicle -1.71949e-014 -1.27222e-014
lhumerus -32.9186 22.3474 75.1236
lradius 16.127
lwrist 7.99608
lhand -17.3936 9.15751
lfingers 7.12502
lthumb 8.85549 38.9517
rfemur 24.5026 -4.67958 31.8154
rtibia 5.85117
rfoot 4.27804 -10.1926
rtoes -12.0177
lfemur -25.0399 12.0024 -14.9017
ltibia 25.116
lfoot 6.37162 -1.35744
ltoes -24.1316
844
root 41.2894 16.721 -5.2978 475.555 100.98 474.659
lowerback -1.08242 0.972023 12.3565
upperback 1.06403 1.0922 0.885359
thorax 1.94545 0.722825 -5.96703
lowerneck -6.34082 0.109536 0.90339
upperneck 9.0807 -0.106574 2.12191
head 4.10977 0.101329 0.544244
rclavicle 1.2598e-014 1.03368e-014
rhumerus -28.2578 -2.19372 -89.8829
rradius 25.5073
rwrist 5.93185
rhand -17.7032 -36.8682
rfingers 7.12502
rthumb 8.55676 293.325
lclavicle 1.2598e-014 1.03368e-014
lhumerus -33.4756 22.8151 74.646
lradius 15.8549
lwrist 7.56634
lhand -17.3205 9.18077
lfingers 7.12502
lthumb 8.9261 38.972
rfemur 24.3433 -4.31499 31.5552
rtibia 7.07945
rfoot 4.82839 -10.5332
rtoes -11.1352
lfemur -24.3252 11.9086 -14.8669
ltibia 25.4252
lfoot 4.9985 -1.1577
ltoes -23.669
845
root 41.478 16.7138 -5.31514 477.504 101.086 476.639
lowerback -1.249 1.05352 12.3013
upperback 0.966513 1.18313 0.85995
thorax 1.95363 0.762995 -5.95813
lowerneck -6.28869 0.126237 0.916462
upperneck 9.20421 -0.0843119 2.11669
head 4.14337 0.114493 0.542087
rclavicle -1.2511e-014 -3.37934e-014
rhumerus -28.5963 -2.46866 -89.7032
rradius 25.1765
rwrist 6.16111
rhand -17.7871 -36.3141
rfingers 7.12502
rthumb 8.47578 293.876
lclavicle -1.2511e-014 -3.37934e-014
lhumerus -34.06 23.2379 74.1657
lradius 15.6168
lwrist 7.16346
lhand -17.2451 9.2065
lfingers 7.12502
lthumb 8.9988 38.9946
rfemur 24.0475 -3.94179 31.277
rtibia 8.53368
rfoot 5.38152 -10.9108
rtoes -10.0482
lfemur -23.5909 11.9114 -14.8616
ltibia 25.7029
lfoot 3.707 -1.00238
ltoes -23.1703
